<?xml version="1.0" encoding="utf-8"?>
<!-- Generator: Adobe Illustrator 16.0.0, SVG Export Plug-In . SVG Version: 6.00 Build 0)  -->
<!DOCTYPE svg PUBLIC "-//W3C//DTD SVG 1.1//EN" "http://www.w3.org/Graphics/SVG/1.1/DTD/svg11.dtd">
<svg version="1.1" id="Vrstva_1" xmlns="http://www.w3.org/2000/svg" xmlns:xlink="http://www.w3.org/1999/xlink" x="0px" y="0px"
	 width="150.061px" height="150.061px" viewBox="0 0 150.061 150.061" enable-background="new 0 0 150.061 150.061"
	 xml:space="preserve">
<line fill="#23A6BD" stroke="#20A6BD" stroke-width="1.2" x1="44.926" y1="81.402" x2="78.979" y2="81.284"/>
<line fill="none" stroke="#20A6BD" stroke-width="1.2" x1="78.979" y1="81.284" x2="96.715" y2="87.906"/>
<line fill="none" stroke="#20A6BD" stroke-width="1.2" x1="96.715" y1="87.906" x2="106.41" y2="67.805"/>
<line fill="none" stroke="#20A6BD" stroke-width="1.2" x1="106.41" y1="67.805" x2="103.218" y2="43.211"/>
<line fill="none" stroke="#20A6BD" stroke-width="1.2" x1="103.218" y1="43.211" x2="91.157" y2="28.076"/>
<line fill="none" stroke="#20A6BD" stroke-width="1.2" x1="91.157" y1="28.076" x2="71.412" y2="22.283"/>
<line fill="none" stroke="#20A6BD" stroke-width="1.2" x1="71.412" y1="22.283" x2="55.804" y2="38.245"/>
<line fill="none" stroke="#20A6BD" stroke-width="1.2" x1="55.804" y1="38.245" x2="45.754" y2="59.528"/>
<line fill="none" stroke="#20A6BD" stroke-width="1.2" x1="45.754" y1="58.937" x2="44.926" y2="81.402"/>
<line fill="none" stroke="#20A6BD" stroke-width="1.2" x1="44.926" y1="81.402" x2="63.608" y2="61.42"/>
<line fill="none" stroke="#20A6BD" stroke-width="1.2" x1="63.608" y1="61.42" x2="45.754" y2="58.937"/>
<line fill="none" stroke="#20A6BD" stroke-width="1.2" x1="63.608" y1="61.42" x2="55.804" y2="38.245"/>
<line fill="none" stroke="#20A6BD" stroke-width="1.2" x1="55.804" y1="38.245" x2="76.378" y2="44.039"/>
<line fill="none" stroke="#20A6BD" stroke-width="1.2" x1="76.378" y1="44.039" x2="71.412" y2="22.283"/>
<line fill="none" stroke="#20A6BD" stroke-width="1.2" x1="76.378" y1="43.211" x2="91.157" y2="28.076"/>
<line fill="none" stroke="#20A6BD" stroke-width="1.2" x1="76.378" y1="44.039" x2="103.218" y2="42.62"/>
<line fill="none" stroke="#20A6BD" stroke-width="1.2" x1="76.378" y1="44.039" x2="91.157" y2="63.667"/>
<line fill="none" stroke="#20A6BD" stroke-width="1.2" x1="91.157" y1="63.667" x2="63.608" y2="61.42"/>
<line fill="none" stroke="#20A6BD" stroke-width="1.2" x1="91.157" y1="63.667" x2="103.218" y2="43.211"/>
<line fill="none" stroke="#20A6BD" stroke-width="1.2" x1="91.157" y1="63.667" x2="106.41" y2="67.805"/>
<line fill="none" stroke="#20A6BD" stroke-width="1.2" x1="91.157" y1="63.667" x2="96.715" y2="87.197"/>
<line fill="none" stroke="#20A6BD" stroke-width="1.2" x1="91.157" y1="63.667" x2="78.979" y2="81.284"/>
<line fill="none" stroke="#20A6BD" stroke-width="1.2" x1="78.979" y1="81.284" x2="63.608" y2="61.42"/>
<line fill="#23A6BD" stroke="#20A6BD" stroke-width="1.2" x1="63.608" y1="61.42" x2="76.378" y2="44.039"/>
<circle fill="#23A6BD" stroke="#20A6BD" stroke-width="1.2" cx="71.412" cy="22.312" r="2.868"/>
<circle fill="#23A6BD" stroke="#20A6BD" stroke-width="1.2" cx="46.345" cy="58.937" r="2.956"/>
<circle fill="#23A6BD" stroke="#20A6BD" stroke-width="1.2" cx="106.942" cy="67.509" r="2.66"/>
<circle fill="#23A6BD" stroke="#20A6BD" stroke-width="1.2" cx="103.573" cy="43.565" r="2.779"/>
<circle fill="#17E89F" cx="91.837" cy="29.17" r="3.991"/>
<circle fill="#17E89F" cx="63.963" cy="61.538" r="3.429"/>
<circle fill="#139187" cx="44.926" cy="81.757" r="3.666"/>
<circle fill="#139187" cx="96.597" cy="87.787" r="3.074"/>
<circle fill="#139187" cx="76.614" cy="44.157" r="3.783"/>
<circle fill="#4BCDD6" cx="56.75" cy="38.363" r="3.547"/>
<circle fill="#4BCDD6" cx="91.276" cy="64.376" r="3.429"/>
<circle fill="#4BCDD6" cx="78.979" cy="81.284" r="3.429"/>
<text transform="matrix(1 0 0 1 7.6836 113.333)"><tspan x="0" y="0" fill="#139187" font-family="'Impact'" font-size="17">Seznam Webmaster</tspan><tspan x="46.642" y="20.4" fill="#139187" font-family="'Impact'" font-size="17">plugin</tspan></text>
</svg>
